<svg xmlns="http://www.w3.org/2000/svg" xmlns:xlink="http://www.w3.org/1999/xlink" width="142" zoomAndPan="magnify" viewBox="0 0 106.5 84.749997" height="113" preserveAspectRatio="xMidYMid meet" version="1.0"><defs><g/><clipPath id="id1"><path d="M 94 35 L 106.003906 35 L 106.003906 49 L 94 49 Z M 94 35 " clip-rule="nonzero"/></clipPath><clipPath id="id2"><path d="M 106 52 L 106.003906 52 L 106.003906 53 L 106 53 Z M 106 52 " clip-rule="nonzero"/></clipPath><clipPath id="id3"><path d="M 32 30 L 37 30 L 37 39 L 32 39 Z M 32 30 " clip-rule="nonzero"/></clipPath><clipPath id="id4"><path d="M 28.605469 31.617188 L 40.53125 30.304688 L 41.351562 37.757812 L 29.425781 39.070312 Z M 28.605469 31.617188 " clip-rule="nonzero"/></clipPath><clipPath id="id5"><path d="M 28.605469 31.617188 L 40.53125 30.304688 L 41.351562 37.757812 L 29.425781 39.070312 Z M 28.605469 31.617188 " clip-rule="nonzero"/></clipPath><clipPath id="id6"><path d="M 29 34 L 33 34 L 33 39 L 29 39 Z M 29 34 " clip-rule="nonzero"/></clipPath><clipPath id="id7"><path d="M 28.605469 31.617188 L 40.53125 30.304688 L 41.351562 37.757812 L 29.425781 39.070312 Z M 28.605469 31.617188 " clip-rule="nonzero"/></clipPath><clipPath id="id8"><path d="M 28.605469 31.617188 L 40.53125 30.304688 L 41.351562 37.757812 L 29.425781 39.070312 Z M 28.605469 31.617188 " clip-rule="nonzero"/></clipPath><clipPath id="id9"><path d="M 36 34 L 42 34 L 42 39 L 36 39 Z M 36 34 " clip-rule="nonzero"/></clipPath><clipPath id="id10"><path d="M 28.605469 31.617188 L 40.53125 30.304688 L 41.351562 37.757812 L 29.425781 39.070312 Z M 28.605469 31.617188 " clip-rule="nonzero"/></clipPath><clipPath id="id11"><path d="M 28.605469 31.617188 L 40.53125 30.304688 L 41.351562 37.757812 L 29.425781 39.070312 Z M 28.605469 31.617188 " clip-rule="nonzero"/></clipPath></defs><g fill="rgb(100%, 85.488892%, 27.449036%)" fill-opacity="1"><g transform="translate(1.375154, 59.304574)"><g><path d="M 17.5625 -30.984375 C 21.21875 -30.660156 23.265625 -29.773438 23.703125 -28.328125 C 24.140625 -26.878906 23.796875 -25.828125 22.671875 -25.171875 C 21.554688 -24.523438 20.28125 -24.769531 18.84375 -25.90625 C 17.40625 -27.050781 15.492188 -27.023438 13.109375 -25.828125 C 10.722656 -24.640625 8.925781 -22.429688 7.71875 -19.203125 C 6.519531 -15.972656 5.976562 -13.347656 6.09375 -11.328125 C 6.300781 -9.804688 6.773438 -8.535156 7.515625 -7.515625 C 8.785156 -6.429688 10.675781 -5.976562 13.1875 -6.15625 C 15.695312 -6.34375 18.289062 -7.554688 20.96875 -9.796875 C 23.65625 -12.046875 25.007812 -13.035156 25.03125 -12.765625 C 23.28125 -8.484375 21.25 -5.703125 18.9375 -4.421875 C 16.625 -3.148438 14.6875 -2.359375 13.125 -2.046875 C 11.570312 -1.742188 10.046875 -1.640625 8.546875 -1.734375 C 5.265625 -2.335938 3.128906 -3.550781 2.140625 -5.375 C 0.566406 -7.632812 -0.195312 -10.484375 -0.15625 -13.921875 L 0.09375 -15.984375 C 0.976562 -18.984375 2.710938 -22.132812 5.296875 -25.4375 C 5.460938 -25.457031 6.132812 -26.019531 7.3125 -27.125 C 8.851562 -28.601562 11.675781 -29.8125 15.78125 -30.75 C 16.28125 -30.863281 16.875 -30.941406 17.5625 -30.984375 Z M 17.5625 -30.984375 "/></g></g></g><g fill="rgb(100%, 85.488892%, 27.449036%)" fill-opacity="1"><g transform="translate(26.763917, 57.668499)"><g><path d="M 8.4375 -17.46875 C 10.257812 -17.789062 11.1875 -16.519531 11.21875 -13.65625 C 10.789062 -10.8125 10.597656 -9.070312 10.640625 -8.4375 C 10.691406 -7.695312 10.929688 -7.320312 11.359375 -7.3125 C 12.148438 -7.351562 13.75 -8.023438 16.15625 -9.328125 L 16.296875 -9.0625 L 16.34375 -8.40625 C 16.175781 -7.738281 15.296875 -7.019531 13.703125 -6.25 C 13.191406 -5.78125 12.5 -5.515625 11.625 -5.453125 C 10.195312 -5.492188 9.226562 -6.085938 8.71875 -7.234375 C 8.207031 -8.378906 7.9375 -9.21875 7.90625 -9.75 L 7.765625 -9.734375 C 5.929688 -5.898438 4.242188 -3.929688 2.703125 -3.828125 C 2.335938 -3.804688 2.117188 -3.789062 2.046875 -3.78125 C 1.085938 -3.71875 0.195312 -4.519531 -0.625 -6.1875 C -1.445312 -7.851562 -0.675781 -10.1875 1.6875 -13.1875 C 4.46875 -15.488281 6.082031 -16.65625 6.53125 -16.6875 C 7.71875 -17.207031 8.351562 -17.46875 8.4375 -17.46875 Z M 1.34375 -6.390625 L 1.75 -6.171875 C 3.75 -7.359375 5.132812 -8.726562 5.90625 -10.28125 C 6.675781 -11.84375 7.050781 -12.75 7.03125 -13 L 7.015625 -13.375 L 6.859375 -13.375 C 4.554688 -12.5 3.054688 -11.171875 2.359375 -9.390625 C 1.671875 -7.609375 1.332031 -6.609375 1.34375 -6.390625 Z M 1.34375 -6.390625 "/></g></g></g><g fill="rgb(100%, 85.488892%, 27.449036%)" fill-opacity="1"><g transform="translate(43.432356, 56.594369)"><g><path d="M 2.125 -19.375 L 2.59375 -19.40625 C 3.882812 -19.488281 4.570312 -18.898438 4.65625 -17.640625 L 4.78125 -15.703125 L 5.25 -15.734375 C 6.90625 -17.460938 7.894531 -18.335938 8.21875 -18.359375 L 9.4375 -18.4375 C 10.914062 -18.53125 11.929688 -17.539062 12.484375 -15.46875 L 12.53125 -14.765625 L 12.421875 -13.0625 C 15.304688 -17.070312 17.660156 -19.144531 19.484375 -19.28125 L 19.703125 -19.296875 C 22.148438 -18.628906 23.425781 -17.515625 23.53125 -15.953125 L 23.859375 -14.78125 C 23.179688 -9.5625 21.882812 -6.023438 19.96875 -4.171875 L 18.765625 -3.84375 C 17.984375 -3.789062 17.363281 -4.789062 16.90625 -6.84375 C 16.957031 -11.113281 17.265625 -13.941406 17.828125 -15.328125 C 17.972656 -15.828125 17.800781 -15.898438 17.3125 -15.546875 C 13.625 -10.828125 11.601562 -8.453125 11.25 -8.421875 L 9.828125 -8.34375 C 8.859375 -8.28125 8.265625 -10.003906 8.046875 -13.515625 L 7.8125 -13.5 C 7.40625 -13.34375 5.863281 -11.070312 3.1875 -6.6875 C 2.800781 -6.382812 2.335938 -6.113281 1.796875 -5.875 L 0.59375 -5.796875 C 0.332031 -5.773438 0.0703125 -6.082031 -0.1875 -6.71875 C -0.226562 -7.394531 0.460938 -10.410156 1.890625 -15.765625 C 2.078125 -16.609375 2.101562 -17.097656 1.96875 -17.234375 C 1.84375 -17.378906 1.613281 -17.441406 1.28125 -17.421875 C 0.476562 -16.722656 -0.210938 -16.351562 -0.796875 -16.3125 L -1.078125 -16.78125 C 0.390625 -18.46875 1.457031 -19.332031 2.125 -19.375 Z M 2.125 -19.375 "/></g></g></g><g fill="rgb(100%, 85.488892%, 27.449036%)" fill-opacity="1"><g transform="translate(68.4821, 54.980141)"><g><path d="M 1.890625 6.796875 C -0.273438 7.160156 -0.554688 1.742188 1.046875 -9.453125 C 1.960938 -12.796875 2.441406 -14.84375 2.484375 -15.59375 C 2.597656 -16.582031 2.664062 -17.203125 2.6875 -17.453125 C 2.71875 -17.710938 2.726562 -18.203125 2.71875 -18.921875 C 2.707031 -19.640625 3.113281 -19.976562 3.9375 -19.9375 C 4.757812 -19.90625 5.226562 -19.066406 5.34375 -17.421875 C 5.457031 -15.785156 5.503906 -14.660156 5.484375 -14.046875 L 5.640625 -14.0625 C 8.285156 -18.550781 10.519531 -20.84375 12.34375 -20.9375 L 12.65625 -20.8125 C 12.851562 -20.925781 13.003906 -20.984375 13.109375 -20.984375 C 14.242188 -21.035156 15.175781 -20.078125 15.90625 -18.109375 C 16.644531 -16.148438 15.429688 -13.398438 12.265625 -9.859375 C 9.046875 -7.035156 6.757812 -6.28125 5.40625 -7.59375 C 4.613281 0.78125 3.441406 5.578125 1.890625 6.796875 Z M 13.578125 -17.90625 L 13.125 -18.1875 C 10.65625 -16.820312 8.867188 -15.289062 7.765625 -13.59375 C 6.660156 -11.90625 6.109375 -10.910156 6.109375 -10.609375 L 6.0625 -10.1875 L 6.234375 -10.1875 C 8.847656 -10.425781 10.722656 -11.703125 11.859375 -14.015625 C 13.003906 -16.335938 13.578125 -17.632812 13.578125 -17.90625 Z M 13.578125 -17.90625 "/></g></g></g><g fill="rgb(100%, 85.488892%, 27.449036%)" fill-opacity="1"><g transform="translate(85.847411, 53.861104)"><g><path d="M 3.984375 -18.75 C 4.222656 -18.882812 4.570312 -18.835938 5.03125 -18.609375 C 5.488281 -18.378906 5.722656 -18.15625 5.734375 -17.9375 L 5.765625 -17.359375 C 5.859375 -15.859375 5.222656 -15.066406 3.859375 -14.984375 L 3.484375 -14.953125 C 3.296875 -14.941406 3.097656 -15.117188 2.890625 -15.484375 L 2.828125 -16.609375 C 3.367188 -17.898438 3.753906 -18.613281 3.984375 -18.75 Z M 2.453125 -14.15625 C 3.804688 -13.945312 4.515625 -13.363281 4.578125 -12.40625 L 4.609375 -11.859375 C 2.953125 -8.554688 2.160156 -6.320312 2.234375 -5.15625 C 2.554688 -4.789062 2.851562 -4.617188 3.125 -4.640625 C 3.394531 -4.660156 3.847656 -4.847656 4.484375 -5.203125 C 5.117188 -5.554688 6.453125 -6.828125 8.484375 -9.015625 C 8.734375 -9.003906 8.867188 -8.882812 8.890625 -8.65625 C 8.910156 -8.300781 8.21875 -7.453125 6.8125 -6.109375 C 5.40625 -4.765625 4.171875 -4.03125 3.109375 -3.90625 C 1.679688 -3.8125 0.675781 -4.800781 0.09375 -6.875 L 0.0625 -7.265625 C 0.0078125 -8.109375 0.632812 -10.144531 1.9375 -13.375 C 1.96875 -13.875 2.140625 -14.132812 2.453125 -14.15625 Z M 2.453125 -14.15625 "/></g></g></g><g clip-path="url(#id1)"><g fill="rgb(100%, 85.488892%, 27.449036%)" fill-opacity="1"><g transform="translate(94.567736, 53.299159)"><g><path d="M 5.515625 -17.265625 L 8.1875 -17.4375 C 9.175781 -16.976562 9.675781 -16.625 9.6875 -16.375 L 9.75 -15.453125 C 9.488281 -13.179688 7.410156 -11.085938 3.515625 -9.171875 L 3.34375 -9.15625 L 3.390625 -8.40625 C 4.128906 -7.4375 4.941406 -6.984375 5.828125 -7.046875 L 6 -7.046875 C 7.34375 -7.078125 9.160156 -8.046875 11.453125 -9.953125 L 11.640625 -9.5625 L 11.65625 -9.1875 C 9.550781 -6.738281 7.460938 -5.453125 5.390625 -5.328125 C 1.910156 -5.640625 0.0859375 -7.097656 -0.078125 -9.703125 C 0.347656 -12.398438 1.25 -14.351562 2.625 -15.5625 C 3.914062 -16.65625 4.878906 -17.222656 5.515625 -17.265625 Z M 3.21875 -11.25 L 3.234375 -11.046875 C 5.171875 -11.710938 6.59375 -12.878906 7.5 -14.546875 L 7.625 -14.9375 L 7.609375 -15.109375 L 7.4375 -15.5 C 4.507812 -14.34375 3.101562 -12.925781 3.21875 -11.25 Z M 3.21875 -11.25 "/></g></g></g></g><g clip-path="url(#id2)"><g fill="rgb(100%, 85.488892%, 27.449036%)" fill-opacity="1"><g transform="translate(106.355851, 52.539522)"><g/></g></g></g><g clip-path="url(#id3)"><g clip-path="url(#id4)"><g clip-path="url(#id5)"><path fill="rgb(95.689392%, 96.469116%, 98.81897%)" d="M 36.5625 34.378906 C 37.109375 33.371094 36.640625 31.84375 35.957031 31.371094 C 34.859375 30.609375 33.855469 30.972656 33.339844 31.75 C 32.402344 33.175781 33.414062 36.398438 34.894531 38.46875 C 34.894531 35.984375 35.386719 36.820312 36.5625 34.378906 " fill-opacity="1" fill-rule="nonzero"/></g></g></g><g clip-path="url(#id6)"><g clip-path="url(#id7)"><g clip-path="url(#id8)"><path fill="rgb(95.689392%, 96.469116%, 98.81897%)" d="M 32.996094 38.472656 C 32.082031 37.664062 32.832031 36.289062 31.648438 34.839844 C 30.582031 33.769531 28.445312 34.597656 29.214844 36.277344 C 29.671875 37.277344 32.160156 38.28125 32.996094 38.472656 " fill-opacity="1" fill-rule="nonzero"/></g></g></g><g clip-path="url(#id9)"><g clip-path="url(#id10)"><g clip-path="url(#id11)"><path fill="rgb(95.689392%, 96.469116%, 98.81897%)" d="M 38.953125 37.292969 C 39.707031 37.199219 40.632812 37.042969 41.003906 36.371094 C 41.285156 35.875 41.132812 35.332031 40.550781 34.972656 C 39.015625 34.023438 37.519531 34.925781 36.929688 36.132812 C 36.738281 36.519531 36.382812 37.457031 36.539062 38.167969 C 36.769531 37.425781 38.355469 37.367188 38.953125 37.292969 " fill-opacity="1" fill-rule="nonzero"/></g></g></g></svg>